<?xml version="1.0" standalone="no"?>
<!DOCTYPE svg PUBLIC "-//W3C//DTD SVG 20010904//EN"
 "http://www.w3.org/TR/2001/REC-SVG-20010904/DTD/svg10.dtd">
<svg version="1.0" xmlns="http://www.w3.org/2000/svg"
 width="423.000000pt" height="114.000000pt" viewBox="0 0 423.000000 114.000000"
 preserveAspectRatio="xMidYMid meet">

<g transform="translate(0.000000,114.000000) scale(0.100000,-0.100000)"
fill="#000000" stroke="none">
<path d="M585 958 c-70 -48 -107 -105 -113 -173 -8 -98 24 -151 151 -248 30
-23 37 -34 37 -62 0 -45 -22 -58 -125 -79 -128 -26 -125 -41 12 -58 149 -18
425 4 397 32 -5 5 -42 16 -82 25 -163 34 -182 80 -67 165 63 46 98 90 115 143
9 29 9 42 1 50 -9 9 -22 0 -52 -36 -41 -47 -59 -52 -59 -16 0 32 -33 22 -80
-26 -35 -35 -51 -45 -77 -45 -106 0 -149 179 -61 253 32 27 85 47 123 47 11 0
40 -9 64 -20 50 -23 81 -26 81 -7 0 23 -46 58 -95 73 -77 23 -116 18 -170 -18z"/>
<path d="M862 859 c2 -7 10 -15 17 -17 8 -3 12 1 9 9 -2 7 -10 15 -17 17 -8 3
-12 -1 -9 -9z"/>
<path d="M2964 777 c-3 -8 -4 -90 -2 -183 l3 -169 35 0 35 0 6 87 c6 90 18
118 50 118 28 0 39 -39 39 -131 l0 -79 40 0 40 0 0 106 0 106 -35 35 c-34 34
-38 35 -85 29 l-49 -7 -3 48 c-3 46 -4 48 -36 51 -21 2 -34 -2 -38 -11z"/>
<path d="M1430 762 c-41 -20 -65 -63 -55 -99 7 -29 45 -68 96 -98 19 -12 35
-30 37 -43 4 -24 2 -25 -84 -22 -55 1 -69 -8 -59 -39 12 -39 120 -54 176 -25
17 9 37 31 45 50 14 32 13 39 -3 72 -11 21 -41 51 -73 73 -76 52 -74 73 5 77
57 3 75 12 75 39 0 13 -60 33 -100 33 -14 0 -41 -8 -60 -18z"/>
<path d="M2170 755 c0 -29 29 -47 64 -41 14 3 27 -1 29 -8 3 -7 4 -74 4 -149
l-2 -137 37 0 c48 0 51 11 47 169 l-4 126 30 2 c17 0 38 2 48 2 12 1 17 9 17
31 l0 30 -135 0 -135 0 0 -25z"/>
<path d="M3267 624 c1 -88 2 -169 2 -181 1 -19 7 -23 36 -23 38 0 39 2 37 97
0 32 2 33 49 39 61 8 95 34 110 83 9 32 8 44 -6 75 -23 49 -41 56 -143 63
l-87 6 2 -159z m137 80 c23 -9 21 -61 -3 -74 -44 -23 -70 5 -51 56 10 24 25
29 54 18z"/>
<path d="M1682 689 c-26 -8 -33 -14 -30 -32 3 -19 10 -22 61 -25 68 -4 80 -27
20 -37 -85 -14 -122 -53 -107 -113 11 -46 44 -65 99 -57 48 6 62 7 95 3 25 -3
25 -3 28 92 2 52 0 105 -3 117 -11 46 -94 72 -163 52z m86 -172 c5 -24 -42
-45 -62 -28 -27 22 1 52 44 47 8 -1 16 -9 18 -19z"/>
<path d="M1938 693 c-28 -4 -28 -5 -29 -89 -1 -46 -2 -106 -3 -134 -1 -44 1
-50 20 -50 39 0 51 21 58 104 6 83 17 106 47 106 28 0 43 -37 49 -125 5 -77 6
-80 31 -83 24 -3 27 1 31 35 7 57 1 164 -11 195 -15 40 -91 56 -193 41z"/>
<path d="M2535 686 c-87 -39 -106 -160 -37 -229 38 -38 117 -49 157 -23 45 30
29 50 -45 56 -57 4 -65 8 -65 25 0 18 8 20 73 23 l72 3 0 44 c0 83 -80 136
-155 101z m75 -70 c0 -18 -38 -28 -62 -15 -27 14 -13 29 28 29 22 0 34 -5 34
-14z"/>
<path d="M2783 681 c-17 -11 -36 -28 -41 -38 -16 -30 -25 -91 -18 -128 18 -94
206 -134 206 -44 0 16 -7 19 -49 19 -57 0 -81 22 -81 76 0 42 27 64 78 64 33
0 42 4 47 21 9 29 -2 37 -60 44 -40 5 -56 2 -82 -14z"/>
<path d="M3555 688 c-2 -7 -5 -70 -7 -140 l-4 -128 37 0 c45 0 49 9 49 98 0
77 5 87 51 110 68 34 36 89 -36 62 -19 -7 -31 -8 -39 0 -14 14 -46 13 -51 -2z"/>
<path d="M3810 683 c-20 -10 -43 -33 -52 -53 -53 -104 19 -218 130 -207 52 6
76 26 98 83 45 119 -68 233 -176 177z m96 -78 c19 -29 13 -85 -11 -105 -25
-21 -63 -4 -73 33 -21 75 45 132 84 72z"/>
<path d="M835 500 c-3 -5 9 -11 27 -14 106 -17 257 -36 283 -35 l30 1 -30 13
c-50 21 -301 50 -310 35z"/>
<path d="M375 486 c-87 -14 -155 -33 -155 -45 0 -9 318 35 345 48 30 14 -92
12 -190 -3z"/>
<path d="M430 445 c-171 -23 -264 -59 -258 -98 4 -27 83 -68 167 -87 49 -12
53 -14 31 -21 -14 -4 -53 -7 -87 -8 -71 -1 -82 -15 -25 -30 168 -45 721 -39
910 11 104 27 -10 36 -152 12 -30 -6 -38 -4 -34 6 2 8 15 17 29 21 13 4 57 17
97 29 114 33 138 76 64 114 -67 34 -382 80 -403 59 -8 -8 5 -13 47 -18 173
-20 284 -49 284 -75 0 -34 -130 -59 -345 -67 -316 -10 -519 29 -446 88 25 21
88 35 221 49 52 6 99 15 104 20 14 14 -86 11 -204 -5z"/>
</g>
</svg>
